HIERARCHY
ROOT Hips
{
 OFFSET 0.000000 0.000000 0.000000
 CHANNELS 6 Xposition Yposition Zposition Yrotation Xrotation Zrotation
 JOINT Chest
 {
  OFFSET 0.000000 9.585900 0.002600
  CHANNELS 3 Yrotation Xrotation Zrotation
  JOINT Chest2
  {
   OFFSET 0.000000 9.601200 -0.005300
   CHANNELS 3 Yrotation Xrotation Zrotation
   JOINT Chest3
   {
    OFFSET 0.000000 9.561800 0.000000
    CHANNELS 3 Yrotation Xrotation Zrotation
    JOINT Chest4
    {
     OFFSET 0.000000 9.552100 0.000000
     CHANNELS 3 Yrotation Xrotation Zrotation
     JOINT Neck
     {
      OFFSET 0.000000 14.453000 0.000000
      CHANNELS 3 Yrotation Xrotation Zrotation
      JOINT Head
      {
       OFFSET 0.000000 8.936500 -0.011300
       CHANNELS 3 Yrotation Xrotation Zrotation
       End Site
       {
        OFFSET 0.000000 17.073600 -0.006000
       }
      }
     }
     JOINT RightCollar
     {
      OFFSET -2.921100 9.558500 0.000000
      CHANNELS 3 Yrotation Xrotation Zrotation
      JOINT RightShoulder
      {
       OFFSET -13.519700 0.000000 0.000000
       CHANNELS 3 Yrotation Xrotation Zrotation
       JOINT RightElbow
       {
        OFFSET 0.000000 -29.696600 0.000000
        CHANNELS 3 Yrotation Xrotation Zrotation
        JOINT RightWrist
        {
         OFFSET 0.000000 -24.004700 0.000000
         CHANNELS 3 Yrotation Xrotation Zrotation
         End Site
         {
          OFFSET 0.000000 -17.728500 0.000000
         }
        }
       }
      }
     }
     JOINT LeftCollar
     {
      OFFSET 2.921100 9.558500 0.000000
      CHANNELS 3 Yrotation Xrotation Zrotation
      JOINT LeftShoulder
      {
       OFFSET 13.519700 0.000000 0.000000
       CHANNELS 3 Yrotation Xrotation Zrotation
       JOINT LeftElbow
       {
        OFFSET 0.000000 -29.696600 0.000000
        CHANNELS 3 Yrotation Xrotation Zrotation
        JOINT LeftWrist
        {
         OFFSET 0.000000 -24.004700 0.000000
         CHANNELS 3 Yrotation Xrotation Zrotation
         End Site
         {
          OFFSET 0.000000 -17.728500 0.000000
         }
        }
       }
      }
     }
    }
   }
  }
 }
 JOINT RightHip
 {
  OFFSET -7.771700 -0.012900 -0.001300
  CHANNELS 3 Yrotation Xrotation Zrotation
  JOINT RightKnee
  {
   OFFSET 0.000000 -40.869800 0.001200
   CHANNELS 3 Yrotation Xrotation Zrotation
   JOINT RightAnkle
   {
    OFFSET 0.000000 -39.717900 0.002100
    CHANNELS 3 Yrotation Xrotation Zrotation
    JOINT RightToe
    {
     OFFSET 0.000000 -4.965400 11.033500
     CHANNELS 3 Yrotation Xrotation Zrotation
     End Site
     {
      OFFSET 0.000000 -1.423100 5.872300
     }
    }
   }
  }
 }
 JOINT LeftHip
 {
  OFFSET 7.771700 -0.012900 -0.001300
  CHANNELS 3 Yrotation Xrotation Zrotation
  JOINT LeftKnee
  {
   OFFSET 0.000000 -40.869800 0.001200
   CHANNELS 3 Yrotation Xrotation Zrotation
   JOINT LeftAnkle
   {
    OFFSET 0.000000 -39.717900 0.002100
    CHANNELS 3 Yrotation Xrotation Zrotation
    JOINT LeftToe
    {
     OFFSET 0.000000 -4.965400 11.033500
     CHANNELS 3 Yrotation Xrotation Zrotation
     End Site
     {
      OFFSET 0.000000 -1.423100 5.872300
     }
    }
   }
  }
 }
}
MOTION
Frames: 5
Frame Time: 0.008333
0.000000 85.388000 0.000000 0.000000 -5.767877 0.000000 0.000000 11.653817 0.000000 0.000000 -5.885947 0.000000 0.000000 -0.000000 0.000000 0.000000 -0.000000 0.000000 0.000000 12.528835 0.000000 0.000000 0.711642 0.000000 0.000000 -0.000000 0.000000 0.000000 0.000000 -90.000000 0.000000 -2.309062 0.000000 0.000000 2.309062 0.000000 0.000000 -0.000000 0.000000 0.000000 -0.000000 90.000000 0.000000 -2.309062 0.000000 0.000000 2.309062 0.000000 0.000000 8.520406 0.000000 0.000000 1.905762 0.000000 -0.000000 -4.658285 0.000000 0.000000 -0.000000 0.000000 0.000000 8.520406 0.000000 0.000000 1.905762 0.000000 -0.000000 -4.658285 0.000000 0.000000 -0.000000 0.000000
-37.831114 56.441188 -7.206884 178.636722 -13.479003 -0.298330 0.163419 17.417159 -0.024744 0.030834 1.928152 0.086713 0.070615 3.106054 0.091125 0.354264 15.417783 0.621871 -1.668351 12.619454 1.508024 -2.080015 -12.435444 1.943078 3.680858 4.081248 -0.273316 2.768378 -18.757723 -10.271422 -130.203639 -63.094675 160.334092 -10.114517 -18.584441 -6.722523 -5.911458 1.079169 0.047342 -0.260584 -18.834318 8.087684 85.516910 -57.726277 -127.063969 4.840300 -19.208619 6.918458 -4.092472 -61.194187 14.762390 -30.846165 84.711400 -34.016608 -10.207084 -18.783579 13.312460 0.266320 -0.392445 0.152793 18.653533 -56.369411 -20.071481 69.234831 70.554387 70.381856 -6.595547 -14.967765 0.331128 0.255767 0.791021 0.118107
-37.831720 56.441415 -7.210071 178.658778 -13.458920 -0.294807 0.131974 17.450953 -0.009842 0.032155 1.892956 0.069982 0.064275 3.128059 0.106333 0.304027 15.432032 0.644984 -1.640066 12.615720 1.454756 -2.082648 -12.325600 1.921084 3.691707 4.053634 -0.313981 2.667324 -18.689772 -10.224818 -131.318399 -62.579880 161.639553 -10.070213 -18.783280 -6.734043 -5.905621 1.110330 0.017543 -0.242404 -18.827373 8.089038 85.499674 -57.727195 -127.028386 4.848861 -19.316397 6.868239 -4.077580 -61.217037 14.743099 -30.847683 84.720170 -34.016902 -10.244420 -18.783717 13.316548 0.278445 -0.391984 0.156039 18.650324 -56.385698 -20.093660 69.228508 70.555306 70.371533 -6.594770 -14.962954 0.332164 0.255185 0.787916 0.118872
-37.830913 56.440938 -7.210435 178.703454 -13.414318 -0.306641 0.083799 17.424101 -0.002633 0.030043 1.893625 0.071132 0.051288 3.147995 0.118998 0.258941 15.435630 0.660395 -1.608064 12.624320 1.410828 -2.089565 -12.221058 1.896872 3.635316 4.070532 -0.303076 2.673716 -18.686696 -10.237150 -132.317696 -62.080580 162.811281 -10.029631 -18.977156 -6.742734 -5.908522 1.158189 0.000402 -0.221974 -18.811974 8.088151 85.529099 -57.724046 -127.036293 4.952654 -19.403346 6.828648 -4.106562 -61.262759 14.751698 -30.863529 84.724474 -34.032954 -10.278958 -18.778305 13.320679 0.245440 -0.397093 0.145305 18.623927 -56.429274 -20.113449 69.222950 70.556310 70.362265 -6.595728 -14.972958 0.333408 0.257422 0.799964 0.119524
-37.831606 56.441080 -7.213568 178.737852 -13.380250 -0.308974 0.037076 17.427366 0.005080 0.024746 1.894281 0.073439 0.042489 3.149311 0.122759 0.205653 15.437553 0.668386 -1.587553 12.682156 1.379777 -2.073194 -12.173488 1.855480 3.578096 4.087277 -0.292860 2.702251 -18.700916 -10.252861 -133.219649 -61.585505 163.875405 -9.988584 -19.162126 -6.742931 -5.909523 1.207842 -0.011878 -0.198045 -18.786936 8.087177 85.575477 -57.722972 -127.055236 4.982398 -19.476499 6.798269 -4.095748 -61.300423 14.735588 -30.890688 84.734466 -34.065478 -10.293467 -18.776997 13.326524 0.244277 -0.401476 0.148113 18.611591 -56.459968 -20.136542 69.206903 70.563327 70.337801 -6.587046 -14.969106 0.337258 0.250608 0.799341 0.119597
